:FULLY-SPECIFIED
:FORCE-ALL-JOINTS-BE-3DOF
:DEGREES
102
root 7.39978 16.6605 -26.7148 4.23531 10.6429 -4.0969
lfemur -27.5738 -5.21666 -10.1907
ltibia 39.5847 -0 0
lfoot -18.5466 -2.7826 -0.0137487
ltoes 15.6645 -0 0
rfemur -31.0554 -9.82869 8.38351
rtibia 73.2016 -0 0
rfoot 11.4365 17.3427 0.521987
rtoes -10.6712 0 0
lowerback 0.505217 2.13263 1.01441
upperback -1.40288 2.8959 1.87149
thorax -1.75689 1.44633 1.29535
lowerneck -10.3244 -4.94368 2.39482
upperneck -0.909096 -6.85527 0.957997
head 1.39737 -3.39206 -0.389986
lclavicle 3.00728e-14 5.05626e-15 -1.79203e-30
lhumerus -47.0252 -7.92945 93.2595
lradius 48.401 -0 0
lwrist 15.5406 0 0
lhand 7.25244 8.10716 -0.00908218
lfingers 7.12502 -0 0
lthumb 32.5175 35.2219 -0.00474324
rclavicle 3.00728e-14 5.05626e-15 -1.79203e-30
rhumerus -42.8954 0.118302 -72.7064
rradius 50.7812 -0 0
rwrist -1.7111 0 0
rhand -18.2557 -13.3592 0.0388693
rfingers 7.12502 -0 0
rthumb 8.02282 -43.1649 0.0403048
103
root 7.43611 16.6777 -26.6959 3.61854 11.0207 -3.76354
lfemur -26.6016 -4.49488 -10.9373
ltibia 39.0274 -0 0
lfoot -18.2955 -4.13034 -0.0113701
ltoes 18.1179 -0 0
rfemur -33.6524 -8.39824 6.52667
rtibia 77.7903 -0 0
rfoot 18.1073 19.1917 0.571767
rtoes -2.03079 0 0
lowerback 1.13049 1.897 0.602282
upperback -1.14397 2.58158 1.91081
thorax -1.857 1.2942 1.55252
lowerneck -10.3967 -4.92435 2.34255
upperneck -0.80493 -6.82733 0.931196
head 1.4453 -3.37719 -0.393413
lclavicle 1.69454e-14 3.04219e-15 -1.80603e-30
lhumerus -47.045 -8.65587 93.5033
lradius 48.7195 -0 0
lwrist 15.5211 0 0
lhand 7.6299 8.47063 -0.00580254
lfingers 7.12502 -0 0
lthumb 32.8762 35.5067 -0.00285391
rclavicle 1.69454e-14 3.04219e-15 -1.80603e-30
rhumerus -42.8502 0.390643 -71.7782
rradius 50.636 -0 0
rwrist -0.496309 0 0
rhand -19.3873 -13.9475 0.0394887
rfingers 7.12502 -0 0
rthumb 6.93051 -43.792 0.0409225
104
root 7.46945 16.6958 -26.6788 2.97029 11.4169 -3.46005
lfemur -25.6155 -3.73788 -11.6408
ltibia 38.4672 -0 0
lfoot -18.0047 -5.46003 -0.00664193
ltoes 20.5971 -0 0
rfemur -36.2671 -7.00792 4.64262
rtibia 82.1215 -0 0
rfoot 24.3185 20.6931 0.476552
rtoes 6.37415 -0 0
lowerback 1.78948 1.65125 0.219561
upperback -0.868073 2.24924 1.95276
thorax -1.95476 1.13291 1.80078
lowerneck -10.4722 -4.89839 2.28831
upperneck -0.708372 -6.79003 0.900554
head 1.49156 -3.35795 -0.397234
lclavicle 4.73151e-15 1.09578e-15 -1.36715e-30
lhumerus -47.0066 -9.39317 93.7248
lradius 48.9877 -0 0
lwrist 15.4468 0 0
lhand 7.92812 8.76175 -0.00208427
lfingers 7.12502 -0 0
lthumb 33.1592 35.7328 -0.000842415
rclavicle 4.73151e-15 1.09578e-15 -1.36715e-30
rhumerus -42.7952 0.678354 -70.8774
rradius 50.5106 -0 0
rwrist 0.887172 0 0
rhand -20.4849 -14.5881 0.0302801
rfingers 7.12502 -0 0
rthumb 5.87113 -44.47 0.0313613
105
root 7.50067 16.7139 -26.663 2.29397 11.8363 -3.2092
lfemur -24.6237 -3.03201 -12.2594
ltibia 37.9193 -0 0
lfoot -17.6803 -6.68932 -0.00169733
ltoes 22.9091 -0 0
rfemur -38.8182 -5.76182 2.80841
rtibia 85.9962 -0 0
rfoot 29.5691 21.7054 0.267741
rtoes 13.618 -0 0
lowerback 2.46842 1.39632 -0.0986249
upperback -0.583288 1.902 1.99893
thorax -2.04898 0.963492 2.02438
lowerneck -10.5504 -4.86806 2.22982
upperneck -0.606745 -6.74621 0.86479
head 1.54007 -3.33561 -0.401743
lclavicle -4.96076e-15 -5.81719e-16 -6.5833e-31
lhumerus -46.892 -10.0929 93.903
lradius 49.1695 -0 0
lwrist 15.3256 0 0
lhand 8.15781 8.95071 0.000449624
lfingers 7.12502 -0 0
lthumb 33.3771 35.8709 0.000431355
rclavicle -4.96076e-15 -5.81719e-16 -6.5833e-31
rhumerus -42.7587 0.966163 -70.0105
rradius 50.4477 -0 0
rwrist 2.36696 0 0
rhand -21.4373 -15.2367 0.0146368
rfingers 7.12502 -0 0
rthumb 4.95187 -45.1507 0.0151635
106
root 7.53062 16.7313 -26.6477 1.59258 12.283 -3.03397
lfemur -23.6313 -2.46527 -12.7543
ltibia 37.3992 0 0
lfoot -17.3285 -7.73592 0
ltoes 24.8613 0 0
rfemur -41.2156 -4.75181 1.11259
rtibia 89.2151 0 0
rfoot 33.361 22.0951 0
rtoes 18.775 0 0
lowerback 3.15315 1.13213 -0.317021
upperback -0.297715 1.54298 2.05108
thorax -2.13833 0.786902 2.20754
lowerneck -10.6307 -4.8356 2.16485
upperneck -0.487372 -6.69874 0.822634
head 1.59477 -3.31149 -0.407235
lclavicle -1.05232e-14 -1.78906e-15 0
lhumerus -46.6826 -10.7064 94.0168
lradius 49.2289 0 0
lwrist 15.1652 0 0
lhand 8.32967 9.00768 0
lfingers 7.12502 0 0
lthumb 33.5404 35.8923 0
rclavicle -1.05232e-14 -1.78906e-15 0
rhumerus -42.7698 1.23965 -69.1841
rradius 50.4904 0 0
rwrist 3.87067 0 0
rhand -22.1336 -15.8497 0
rfingers 7.12502 0 0
rthumb 4.27979 -45.7864 0
107
root 7.55732 16.7476 -26.6329 0.840511 12.8033 -2.95397
lfemur -22.6373 -2.03866 -13.1109
ltibia 36.9331 -0 0
lfoot -16.9303 -8.63319 -0.00309989
ltoes 26.5469 -0 0
rfemur -43.533 -3.86624 -0.517588
rtibia 92.0383 -0 0
rfoot 35.6677 21.7729 -0.230701
rtoes 21.8271 -0 0
lowerback 3.8603 0.840722 -0.420338
upperback -0.00248215 1.15147 2.11482
thorax -2.22217 0.592407 2.34859
lowerneck -10.7161 -4.80465 2.08989
upperneck -0.346224 -6.65192 0.768484
head 1.65756 -3.28788 -0.415377
lclavicle -1.05178e-14 -2.71025e-15 2.81537e-31
lhumerus -46.3492 -11.2708 94.0573
lradius 49.1375 -0 0
lwrist 14.9387 0 0
lhand 8.40826 8.87568 -0.00113401
lfingers 7.12502 -0 0
lthumb 33.6153 35.7458 -0.000487301
rclavicle -1.05178e-14 -2.71025e-15 2.81537e-31
rhumerus -42.8339 1.53658 -68.4172
rradius 50.6039 -0 0
rwrist 5.6392 0 0
rhand -22.7021 -16.521 -0.00752556
rfingers 7.12502 -0 0
rthumb 3.73115 -46.477 -0.00863405
108
root 7.57935 16.7634 -26.6192 0.0247595 13.4075 -2.95828
lfemur -21.6336 -1.67785 -13.3613
ltibia 36.5159 -0 0
lfoot -16.4737 -9.46548 -0.00767639
ltoes 28.1684 -0 0
rfemur -45.8726 -2.98205 -2.18061
rtibia 94.7294 -0 0
rfoot 36.925 20.8381 -0.351803
rtoes 23.5909 -0 0
lowerback 4.60724 0.514192 -0.435869
upperback 0.312366 0.717664 2.18991
thorax -2.30135 0.375443 2.46102
lowerneck -10.8082 -4.77446 2.00576
upperneck -0.193253 -6.60459 0.701636
head 1.72557 -3.2644 -0.426457
lclavicle -5.89485e-15 -3.58551e-15 1.39133e-31
lhumerus -45.8969 -11.8415 94.0376
lradius 48.9179 -0 0
lwrist 14.6299 0 0
lhand 8.37226 8.56223 5.76877e-06
lfingers 7.12502 -0 0
lthumb 33.5811 35.4403 0.00075711
rclavicle -5.89485e-15 -3.58551e-15 1.39133e-31
rhumerus -42.9268 1.88313 -67.7108
rradius 50.7387 -0 0
rwrist 7.81719 0 0
rhand -23.2841 -17.3209 -0.0127452
rfingers 7.12502 -0 0
rthumb 3.16952 -47.2984 -0.0157942
109
root 7.59839 16.7793 -26.6069 -0.83272 14.0449 -3.02292
lfemur -20.6134 -1.35811 -13.5382
ltibia 36.1164 -0 0
lfoot -15.9755 -10.2269 -0.0115618
ltoes 29.6967 -0 0
rfemur -48.1775 -2.15886 -3.81427
rtibia 97.0948 -0 0
rfoot 37.3272 19.443 -0.374142
rtoes 24.3933 -0 0
lowerback 5.38076 0.167144 -0.391782
upperback 0.640442 0.261061 2.26955
thorax -2.37671 0.146221 2.55177
lowerneck -10.9042 -4.7407 1.9167
upperneck -0.0367544 -6.55141 0.628185
head 1.79559 -3.23831 -0.438696
lclavicle 1.37175e-15 -4.29792e-15 -3.0584e-31
lhumerus -45.3581 -12.3969 93.9703
lradius 48.6104 -0 0
lwrist 14.2634 0 0
lhand 8.2535 8.13424 0.0019274
lfingers 7.12502 -0 0
lthumb 33.4682 35.0363 0.00245256
rclavicle 1.37175e-15 -4.29792e-15 -3.0584e-31
rhumerus -43.034 2.24776 -67.0439
rradius 50.915 -0 0
rwrist 10.1879 0 0
rhand -23.7885 -18.1704 -0.0190239
rfingers 7.12502 -0 0
rthumb 2.68284 -48.1669 -0.0240657
110
root 7.61615 16.7959 -26.5962 -1.70906 14.6657 -3.1219
lfemur -19.5709 -1.05357 -13.6735
ltibia 35.7032 -0 0
lfoot -15.4526 -10.9116 -0.0133082
ltoes 31.1028 -0 0
rfemur -50.3864 -1.4479 -5.35037
rtibia 98.941 -0 0
rfoot 37.067 17.7344 -0.326113
rtoes 24.561 -0 0
lowerback 6.16797 -0.185168 -0.315713
upperback 0.975514 -0.198733 2.34728
thorax -2.4491 -0.0850252 2.62776
lowerneck -11.0012 -4.699 1.82692
upperneck 0.114969 -6.48708 0.554239
head 1.86441 -3.20686 -0.450312
lclavicle 9.30793e-15 -4.73055e-15 -8.34538e-31
lhumerus -44.7655 -12.9158 93.8692
lradius 48.2556 -0 0
lwrist 13.8636 0 0
lhand 8.08383 7.65863 0.00319836
lfingers 7.12502 -0 0
lthumb 33.3069 34.5947 0.0034116
rclavicle 9.30793e-15 -4.73055e-15 -8.34538e-31
rhumerus -43.1413 2.59863 -66.3957
rradius 51.1532 -0 0
rwrist 12.5345 0 0
rhand -24.1241 -18.9902 -0.0255236
rfingers 7.12502 -0 0
rthumb 2.35902 -48.9986 -0.0318497
111
root 7.63433 16.814 -26.5874 -2.58013 15.2208 -3.227
lfemur -18.5009 -0.737277 -13.7982
ltibia 35.2453 -0 0
lfoot -14.922 -11.5136 -0.0120966
ltoes 32.3577 -0 0
rfemur -52.4334 -0.892249 -6.71558
rtibia 100.074 -0 0
rfoot 36.3369 15.8567 -0.237367
rtoes 24.4206 -0 0
lowerback 6.95629 -0.526752 -0.234714
upperback 1.31151 -0.642029 2.41692
thorax -2.51936 -0.308036 2.6959
lowerneck -11.0964 -4.64495 1.74065
upperneck 0.253615 -6.40636 0.485914
head 1.92882 -3.16733 -0.459519
lclavicle 1.59397e-14 -4.76648e-15 -1.15186e-30
lhumerus -44.1528 -13.377 93.7493
lradius 47.8938 -0 0
lwrist 13.4549 0 0
lhand 7.89512 7.20232 0.00306133
lfingers 7.12502 -0 0
lthumb 33.1274 34.176 0.00305679
rclavicle 1.59397e-14 -4.76648e-15 -1.15186e-30
rhumerus -43.2352 2.90367 -65.7449
rradius 51.4736 -0 0
rwrist 14.6402 0 0
rhand -24.1998 -19.7009 -0.0279773
rfingers 7.12502 -0 0
rthumb 2.28595 -49.7095 -0.0341949
112
root 7.65462 16.834 -26.5808 -3.42047 15.6619 -3.30776
lfemur -17.3985 -0.381113 -13.942
ltibia 34.7112 -0 0
lfoot -14.4005 -12.027 -0.00762855
ltoes 33.4325 -0 0
rfemur -54.2505 -0.528068 -7.83293
rtibia 100.301 -0 0
rfoot 35.3303 13.9539 -0.127564
rtoes 24.2989 -0 0
lowerback 7.73353 -0.84085 -0.175239
upperback 1.64247 -1.04905 2.47264
thorax -2.5884 -0.512533 2.76306
lowerneck -11.187 -4.57417 1.66207
upperneck 0.370886 -6.30404 0.429319
head 1.9856 -3.11698 -0.46453
lclavicle 1.92929e-14 -4.28879e-15 -9.47948e-31
lhumerus -43.5542 -13.7597 93.6267
lradius 47.5654 -0 0
lwrist 13.0618 0 0
lhand 7.71925 6.83224 0.00167791
lfingers 7.12502 -0 0
lthumb 32.9601 33.8409 0.00161659
rclavicle 1.92929e-14 -4.28879e-15 -9.47948e-31
rhumerus -43.3026 3.13054 -65.0701
rradius 51.8966 -0 0
rwrist 16.2883 0 0
rhand -23.9245 -20.2235 -0.020723
rfingers 7.12502 -0 0
rthumb 2.55139 -50.2158 -0.024916
113
root 7.67872 16.8568 -26.5766 -4.20359 15.9419 -3.33187
lfemur -16.2594 0.044209 -14.1335
ltibia 34.0697 0 0
lfoot -13.9051 -12.4458 0
ltoes 34.2979 0 0
rfemur -55.7685 -0.386855 -8.62373
rtibia 99.428 0 0
rfoot 34.2414 12.1701 0
rtoes 24.5227 0 0
lowerback 8.48779 -1.10997 -0.163163
upperback 1.96257 -1.39995 2.5089
thorax -2.65714 -0.688219 2.83611
lowerneck -11.2702 -4.4822 1.59539
upperneck 0.458515 -6.17496 0.390532
head 2.03156 -3.05311 -0.463564
lclavicle 1.73937e-14 -3.18055e-15 0
lhumerus -43.0043 -14.0438 93.5185
lradius 47.3109 0 0
lwrist 12.7087 0 0
lhand 7.58807 6.61532 0
lfingers 7.12502 0 0
lthumb 32.8353 33.6501 0
rclavicle 1.73937e-14 -3.18055e-15 0
rhumerus -43.3309 3.24664 -64.3496
rradius 52.4425 0 0
rwrist 17.2621 0 0
rhand -23.207 -20.4783 0
rfingers 7.12502 0 0
rthumb 3.24321 -50.4334 0
